<svg width="24" height="24" viewBox="0 0 24 24" fill="none" xmlns="http://www.w3.org/2000/svg">
<g clip-path="url(#clip0_2099_100)">
<path d="M17.9766 1.72496C17.0766 2.66246 16.3219 3.4734 16.3031 3.52965C16.2891 3.5859 16.2281 4.21402 16.1719 4.92184L16.0641 6.2109L14.3484 7.93121L12.6328 9.65621H12.3047C11.4281 9.6609 10.8375 9.87652 10.3266 10.3875C9.38438 11.3296 9.38438 12.7875 10.3219 13.725C11.2641 14.6671 12.7219 14.6765 13.6641 13.7437C14.2594 13.1531 14.5125 12.3 14.3203 11.5312C14.2969 11.4281 14.4703 11.2359 16.0031 9.70777L17.7094 8.00152L19.0969 7.88434L20.4797 7.76246L22.2047 6.03746L23.9297 4.31246H22.3359H20.7422L20.1891 3.75934L19.6406 3.2109L19.6313 1.62184L19.6172 0.0280857L17.9766 1.72496Z" fill="white"/>
<path d="M10.5469 0.210915C6.94219 0.656227 3.72188 2.74685 1.80469 5.87341C0.937502 7.29373 0.389064 8.84998 0.159377 10.5469C0.0656269 11.25 0.0515644 12.75 0.135939 13.4062C0.487502 16.1625 1.65469 18.5578 3.56719 20.4797C5.43281 22.3406 7.70625 23.4797 10.3922 23.8922C11.0953 24 12.9047 24 13.6078 23.8922C16.2938 23.4797 18.5672 22.3406 20.4328 20.4797C22.3453 18.5578 23.5078 16.1672 23.8641 13.4062C23.9484 12.7594 23.9344 11.2078 23.8406 10.5C23.6953 9.4031 23.3766 8.26404 22.9922 7.43904L22.8656 7.16716L22.4156 7.58904C22.1625 7.81873 21.7641 8.19373 21.5203 8.42341L21.0797 8.83591L21.2297 9.50623C21.6328 11.325 21.6422 12.8531 21.2578 14.3906C20.5734 17.1234 18.5859 19.514 16.0078 20.7094C11.3016 22.8937 5.79844 20.9484 3.45 16.275C2.15156 13.6922 2.12344 10.6687 3.36563 8.01091C4.12031 6.39841 5.4375 4.91248 6.95156 3.97498C9.19219 2.5781 11.7422 2.18435 14.2734 2.83123C14.5313 2.89685 14.8359 2.98123 14.9484 3.02341C15.1969 3.10779 15.2344 3.11248 15.2344 3.03748C15.2344 3.00466 15.6375 2.57341 16.1297 2.08123L17.025 1.18591L16.4203 0.95154C15.4078 0.553102 14.5359 0.337477 13.4625 0.210915C12.7406 0.126539 11.2359 0.126539 10.5469 0.210915Z" fill="white"/>
<path d="M11.6953 4.90781C9.77344 4.9875 7.87969 5.90625 6.60938 7.36875C4.75782 9.51094 4.32657 12.4687 5.49376 15.0234C6.37969 16.9547 8.06719 18.3891 10.1203 18.9562C10.7953 19.1437 11.1891 19.1953 12 19.1953C12.8109 19.1953 13.2047 19.1437 13.8797 18.9562C15.9328 18.3891 17.6203 16.9547 18.5063 15.0234C19.3313 13.2188 19.3734 11.2359 18.6234 9.47812C18.4922 9.17344 18.4359 9.09375 18.3703 9.10312C18.3234 9.1125 17.9203 9.50625 17.4797 9.97969C16.6969 10.8234 16.6781 10.8469 16.7063 11.0109C16.8375 11.85 16.7625 12.8672 16.5188 13.5844C15.8672 15.5016 14.025 16.8281 12 16.8281C8.91563 16.8281 6.62344 13.8937 7.37813 10.9078C7.87969 8.92969 9.53907 7.50469 11.5547 7.32187C11.8125 7.29844 12.0891 7.28437 12.1641 7.29375C12.2438 7.29844 12.5016 7.33125 12.7406 7.36406L13.1813 7.42031L14.0906 6.51094C14.5922 6.00937 15 5.57812 15 5.54531C15 5.40937 13.35 4.98281 12.6563 4.94062C12.4641 4.92656 12.2297 4.9125 12.1406 4.90781C12.0516 4.90312 11.85 4.90312 11.6953 4.90781Z" fill="white"/>
</g>
<defs>
<clipPath id="clip0_2099_100">
<rect width="24" height="24" fill="white"/>
</clipPath>
</defs>
</svg>
