<svg width="139" height="24" viewBox="0 0 139 24" fill="none" xmlns="http://www.w3.org/2000/svg">
<path d="M37.045 19V8.55H38.774V10.089H38.926C38.964 9.54433 39.1287 9.12 39.42 8.816C39.724 8.512 40.1293 8.36 40.636 8.36C41.1173 8.36 41.4973 8.50567 41.776 8.797C42.0547 9.08833 42.2573 9.519 42.384 10.089H42.517C42.555 9.54433 42.726 9.12 43.03 8.816C43.334 8.512 43.7457 8.36 44.265 8.36C44.8983 8.36 45.405 8.60067 45.785 9.082C46.1777 9.55067 46.374 10.203 46.374 11.039V19H44.455V11.134C44.455 10.7287 44.3727 10.4183 44.208 10.203C44.0433 9.98767 43.8027 9.88 43.486 9.88C42.8147 9.88 42.479 10.3233 42.479 11.21V19H40.94V11.134C40.94 10.7287 40.8513 10.4183 40.674 10.203C40.4967 9.98767 40.2433 9.88 39.914 9.88C39.2553 9.88 38.926 10.3233 38.926 11.21V19H37.045ZM49.0836 17.1H52.8456V10.431H49.5586V8.55H54.8786V17.1H57.9376V19H49.0836V17.1ZM52.0856 5.681C52.0856 5.31367 52.1996 5.02233 52.4276 4.807C52.6682 4.579 52.9849 4.465 53.3776 4.465H53.8336C54.2262 4.465 54.5366 4.579 54.7646 4.807C55.0052 5.02233 55.1256 5.31367 55.1256 5.681C55.1256 6.04833 55.0052 6.33967 54.7646 6.555C54.5366 6.77033 54.2199 6.878 53.8146 6.878H53.3776C52.9849 6.878 52.6682 6.77033 52.4276 6.555C52.1996 6.33967 52.0856 6.04833 52.0856 5.681ZM60.2862 8.55H62.2622V10.355H62.4332C62.5725 9.709 62.8828 9.215 63.3642 8.873C63.8455 8.531 64.4662 8.36 65.2262 8.36C65.7708 8.36 66.2522 8.455 66.6702 8.645C67.1008 8.82233 67.4618 9.07567 67.7532 9.405C68.0572 9.73433 68.2852 10.1333 68.4372 10.602C68.5892 11.058 68.6652 11.5647 68.6652 12.122V19H66.5752V12.407C66.5752 11.685 66.3915 11.1277 66.0242 10.735C65.6568 10.3423 65.1502 10.146 64.5042 10.146C63.8455 10.146 63.3262 10.355 62.9462 10.773C62.5662 11.191 62.3762 11.761 62.3762 12.483V19H60.2862V8.55ZM71.8687 17.1H75.6307V10.431H72.3437V8.55H77.6637V17.1H80.7227V19H71.8687V17.1ZM74.8707 5.681C74.8707 5.31367 74.9847 5.02233 75.2127 4.807C75.4534 4.579 75.7701 4.465 76.1627 4.465H76.6187C77.0114 4.465 77.3217 4.579 77.5497 4.807C77.7904 5.02233 77.9107 5.31367 77.9107 5.681C77.9107 6.04833 77.7904 6.33967 77.5497 6.555C77.3217 6.77033 77.0051 6.878 76.5997 6.878H76.1627C75.7701 6.878 75.4534 6.77033 75.2127 6.555C74.9847 6.33967 74.8707 6.04833 74.8707 5.681ZM82.8053 12.388C82.8053 11.78 82.8876 11.229 83.0523 10.735C83.217 10.2283 83.4576 9.804 83.7743 9.462C84.091 9.10733 84.471 8.835 84.9143 8.645C85.3576 8.455 85.8516 8.36 86.3963 8.36C87.169 8.36 87.815 8.54367 88.3343 8.911C88.8536 9.27833 89.1893 9.79133 89.3413 10.45H89.4743V8.55H91.4503V18.373C91.4503 19.5637 91.0703 20.501 90.3103 21.185C89.563 21.8817 88.5306 22.23 87.2133 22.23H84.5153V20.444H87.2133C87.8846 20.444 88.4103 20.2603 88.7903 19.893C89.183 19.5257 89.3793 19.019 89.3793 18.373V18.012L89.4553 16.112H89.3413C89.1766 16.7707 88.8346 17.2837 88.3153 17.651C87.796 18.0183 87.15 18.202 86.3773 18.202C85.8326 18.202 85.3386 18.107 84.8953 17.917C84.4646 17.727 84.091 17.461 83.7743 17.119C83.4703 16.7643 83.2296 16.34 83.0523 15.846C82.8876 15.352 82.8053 14.801 82.8053 14.193V12.388ZM84.9143 14.155C84.9143 14.8517 85.1106 15.4027 85.5033 15.808C85.9086 16.2007 86.4533 16.397 87.1373 16.397C87.834 16.397 88.3786 16.2007 88.7713 15.808C89.1766 15.4027 89.3793 14.8517 89.3793 14.155V12.407C89.3793 11.7103 89.1766 11.1657 88.7713 10.773C88.3786 10.3677 87.834 10.165 87.1373 10.165C86.4533 10.165 85.9086 10.3677 85.5033 10.773C85.1106 11.1657 84.9143 11.7103 84.9143 12.407V14.155ZM94.0269 16.017C94.0269 15.0037 94.3752 14.1993 95.0719 13.604C95.7812 13.0087 96.7376 12.711 97.9409 12.711H100.772V11.837C100.772 11.2797 100.576 10.849 100.183 10.545C99.8029 10.2283 99.2582 10.07 98.5489 10.07C98.0042 10.07 97.5419 10.1713 97.1619 10.374C96.7819 10.564 96.5286 10.8363 96.4019 11.191H94.3499C94.5146 10.317 94.9769 9.62667 95.7369 9.12C96.4969 8.61333 97.4406 8.36 98.5679 8.36C99.8979 8.36 100.943 8.664 101.703 9.272C102.476 9.88 102.862 10.716 102.862 11.78V19H100.924V16.967H100.772C100.633 17.651 100.259 18.1957 99.6509 18.601C99.0556 18.9937 98.3146 19.19 97.4279 19.19C96.3892 19.19 95.5596 18.905 94.9389 18.335C94.3309 17.7523 94.0269 16.9797 94.0269 16.017ZM96.1169 15.846C96.1169 16.378 96.2879 16.7897 96.6299 17.081C96.9719 17.3723 97.4532 17.518 98.0739 17.518C98.4666 17.518 98.8276 17.4673 99.1569 17.366C99.4862 17.2647 99.7712 17.1253 100.012 16.948C100.253 16.758 100.436 16.5427 100.563 16.302C100.702 16.0487 100.772 15.7763 100.772 15.485V14.174H97.9599C97.3899 14.174 96.9402 14.3197 96.6109 14.611C96.2816 14.9023 96.1169 15.314 96.1169 15.846ZM105.4 19V8.55H107.129V10.089H107.281C107.319 9.54433 107.484 9.12 107.775 8.816C108.079 8.512 108.485 8.36 108.991 8.36C109.473 8.36 109.853 8.50567 110.131 8.797C110.41 9.08833 110.613 9.519 110.739 10.089H110.872C110.91 9.54433 111.081 9.12 111.385 8.816C111.689 8.512 112.101 8.36 112.62 8.36C113.254 8.36 113.76 8.60067 114.14 9.082C114.533 9.55067 114.729 10.203 114.729 11.039V19H112.81V11.134C112.81 10.7287 112.728 10.4183 112.563 10.203C112.399 9.98767 112.158 9.88 111.841 9.88C111.17 9.88 110.834 10.3233 110.834 11.21V19H109.295V11.134C109.295 10.7287 109.207 10.4183 109.029 10.203C108.852 9.98767 108.599 9.88 108.269 9.88C107.611 9.88 107.281 10.3233 107.281 11.21V19H105.4ZM117.059 12.407C117.059 11.7863 117.16 11.229 117.363 10.735C117.566 10.2283 117.857 9.804 118.237 9.462C118.617 9.10733 119.079 8.835 119.624 8.645C120.169 8.455 120.777 8.36 121.448 8.36C122.119 8.36 122.721 8.455 123.253 8.645C123.798 8.835 124.26 9.10733 124.64 9.462C125.02 9.804 125.311 10.2283 125.514 10.735C125.717 11.229 125.818 11.7863 125.818 12.407V14.326H119.13V15.067C119.13 15.8143 119.333 16.397 119.738 16.815C120.156 17.233 120.726 17.442 121.448 17.442C121.98 17.442 122.442 17.3597 122.835 17.195C123.228 17.0303 123.513 16.7833 123.69 16.454H125.742C125.628 16.872 125.444 17.252 125.191 17.594C124.938 17.9233 124.621 18.2083 124.241 18.449C123.874 18.6897 123.449 18.8733 122.968 19C122.499 19.1267 121.993 19.19 121.448 19.19C120.777 19.19 120.169 19.095 119.624 18.905C119.092 18.715 118.636 18.4427 118.256 18.088C117.876 17.7333 117.578 17.309 117.363 16.815C117.16 16.3083 117.059 15.7447 117.059 15.124V12.407ZM119.13 12.806H123.766V12.407C123.766 11.685 123.563 11.1213 123.158 10.716C122.753 10.3107 122.183 10.108 121.448 10.108C120.713 10.108 120.143 10.3107 119.738 10.716C119.333 11.1213 119.13 11.685 119.13 12.407V12.806ZM128.395 16.378H130.561C130.637 16.72 130.846 16.9923 131.188 17.195C131.542 17.3977 131.973 17.499 132.48 17.499H133.164C133.784 17.499 134.266 17.3723 134.608 17.119C134.962 16.8657 135.14 16.5173 135.14 16.074C135.14 15.314 134.582 14.858 133.468 14.706L131.948 14.497C130.82 14.345 129.984 14.022 129.44 13.528C128.908 13.0213 128.642 12.312 128.642 11.4C128.642 10.4373 128.977 9.69 129.649 9.158C130.333 8.626 131.302 8.36 132.556 8.36H133.221C134.323 8.36 135.216 8.607 135.9 9.101C136.596 9.58233 137.008 10.241 137.135 11.077H134.988C134.912 10.7603 134.715 10.5133 134.399 10.336C134.082 10.146 133.689 10.051 133.221 10.051H132.556C131.96 10.051 131.504 10.165 131.188 10.393C130.871 10.6083 130.713 10.9377 130.713 11.381C130.713 11.7483 130.827 12.0333 131.055 12.236C131.295 12.4387 131.675 12.5717 132.195 12.635L133.753 12.844C134.943 13.0087 135.817 13.3443 136.375 13.851C136.932 14.3577 137.211 15.0797 137.211 16.017C137.211 17.0303 136.862 17.8157 136.166 18.373C135.469 18.9177 134.468 19.19 133.164 19.19H132.48C131.314 19.19 130.364 18.943 129.63 18.449C128.908 17.9423 128.496 17.252 128.395 16.378Z" fill="white"/>
<g clip-path="url(#clip0_2099_105)">
<path d="M17.9766 1.72496C17.0766 2.66246 16.3219 3.4734 16.3031 3.52965C16.2891 3.5859 16.2281 4.21402 16.1719 4.92184L16.0641 6.2109L14.3484 7.93121L12.6328 9.65621H12.3047C11.4281 9.6609 10.8375 9.87652 10.3266 10.3875C9.38438 11.3296 9.38438 12.7875 10.3219 13.725C11.2641 14.6671 12.7219 14.6765 13.6641 13.7437C14.2594 13.1531 14.5125 12.3 14.3203 11.5312C14.2969 11.4281 14.4703 11.2359 16.0031 9.70777L17.7094 8.00152L19.0969 7.88434L20.4797 7.76246L22.2047 6.03746L23.9297 4.31246H22.3359H20.7422L20.1891 3.75934L19.6406 3.2109L19.6313 1.62184L19.6172 0.0280857L17.9766 1.72496Z" fill="white"/>
<path d="M10.5469 0.210915C6.94219 0.656227 3.72188 2.74685 1.80469 5.87341C0.937502 7.29373 0.389064 8.84998 0.159377 10.5469C0.0656269 11.25 0.0515644 12.75 0.135939 13.4062C0.487502 16.1625 1.65469 18.5578 3.56719 20.4797C5.43281 22.3406 7.70625 23.4797 10.3922 23.8922C11.0953 24 12.9047 24 13.6078 23.8922C16.2938 23.4797 18.5672 22.3406 20.4328 20.4797C22.3453 18.5578 23.5078 16.1672 23.8641 13.4062C23.9484 12.7594 23.9344 11.2078 23.8406 10.5C23.6953 9.4031 23.3766 8.26404 22.9922 7.43904L22.8656 7.16716L22.4156 7.58904C22.1625 7.81873 21.7641 8.19373 21.5203 8.42341L21.0797 8.83591L21.2297 9.50623C21.6328 11.325 21.6422 12.8531 21.2578 14.3906C20.5734 17.1234 18.5859 19.514 16.0078 20.7094C11.3016 22.8937 5.79844 20.9484 3.45 16.275C2.15156 13.6922 2.12344 10.6687 3.36563 8.01091C4.12031 6.39841 5.4375 4.91248 6.95156 3.97498C9.19219 2.5781 11.7422 2.18435 14.2734 2.83123C14.5313 2.89685 14.8359 2.98123 14.9484 3.02341C15.1969 3.10779 15.2344 3.11248 15.2344 3.03748C15.2344 3.00466 15.6375 2.57341 16.1297 2.08123L17.025 1.18591L16.4203 0.95154C15.4078 0.553102 14.5359 0.337477 13.4625 0.210915C12.7406 0.126539 11.2359 0.126539 10.5469 0.210915Z" fill="white"/>
<path d="M11.6953 4.90781C9.77344 4.9875 7.87969 5.90625 6.60938 7.36875C4.75782 9.51094 4.32657 12.4687 5.49376 15.0234C6.37969 16.9547 8.06719 18.3891 10.1203 18.9562C10.7953 19.1437 11.1891 19.1953 12 19.1953C12.8109 19.1953 13.2047 19.1437 13.8797 18.9562C15.9328 18.3891 17.6203 16.9547 18.5063 15.0234C19.3313 13.2188 19.3734 11.2359 18.6234 9.47812C18.4922 9.17344 18.4359 9.09375 18.3703 9.10312C18.3234 9.1125 17.9203 9.50625 17.4797 9.97969C16.6969 10.8234 16.6781 10.8469 16.7063 11.0109C16.8375 11.85 16.7625 12.8672 16.5188 13.5844C15.8672 15.5016 14.025 16.8281 12 16.8281C8.91563 16.8281 6.62344 13.8937 7.37813 10.9078C7.87969 8.92969 9.53907 7.50469 11.5547 7.32187C11.8125 7.29844 12.0891 7.28437 12.1641 7.29375C12.2438 7.29844 12.5016 7.33125 12.7406 7.36406L13.1813 7.42031L14.0906 6.51094C14.5922 6.00937 15 5.57812 15 5.54531C15 5.40937 13.35 4.98281 12.6563 4.94062C12.4641 4.92656 12.2297 4.9125 12.1406 4.90781C12.0516 4.90312 11.85 4.90312 11.6953 4.90781Z" fill="white"/>
</g>
<defs>
<clipPath id="clip0_2099_105">
<rect width="24" height="24" fill="white"/>
</clipPath>
</defs>
</svg>
